<svg width="133" height="35" viewBox="0 0 133 35" fill="none" xmlns="http://www.w3.org/2000/svg">
<path d="M29.472 34H16.656L16.416 28.624H13.008L12.768 34H0L4.992 3.136H24.48L29.472 34ZM13.248 24.976H16.272L15.696 12.352H13.824L13.248 24.976ZM30.6364 34V0.256H42.8284V34H30.6364ZM44.5448 20.464C44.5448 11.44 49.9688 6.352 58.4648 6.352C67.0088 6.352 72.3848 12.016 72.3848 20.464C72.3848 29.488 67.0088 34.576 58.4648 34.576C49.9688 34.576 44.5448 28.912 44.5448 20.464ZM56.2568 20.464C56.2568 22.72 56.8808 23.872 58.4648 23.872C60.0968 23.872 60.6728 22.72 60.6728 20.464C60.6728 18.208 60.0968 17.056 58.4648 17.056C56.8808 17.056 56.2568 18.208 56.2568 20.464ZM102.074 6.928V34H89.8815L90.4575 24.256H89.3055L87.1455 34.624C79.8495 34.816 74.0895 31.504 74.0895 27.184V6.928H86.2815V20.8C86.2815 22 86.7135 22.528 87.8655 22.528C88.7295 22.528 89.3535 22.144 89.8815 21.664V6.928H102.074ZM132.067 34H120.691L120.739 27.664H119.587C119.011 32.176 116.515 34.576 112.963 34.576C107.779 34.576 103.795 30.208 103.795 21.376C103.795 11.44 108.883 6.352 116.995 6.352C118.099 8.368 120.115 12.4 121.027 14.944H122.179L119.875 6.928V0.256H132.067V34ZM117.667 23.872C119.011 23.872 119.875 23.056 119.875 21.424V19.552C119.875 18.064 119.011 17.056 117.667 17.056C116.083 17.056 115.507 18.208 115.507 20.464C115.507 22.72 116.083 23.872 117.667 23.872Z" fill="#3C49FF" fill-opacity="0.64"/>
</svg>
